<svg xmlns="http://www.w3.org/2000/svg" xmlns:xlink="http://www.w3.org/1999/xlink" viewBox="0 0 171.82 42.08"><defs><style>.cls-1{fill:#ebece9;}.cls-2{fill:url(#linear-gradient);}.cls-3{fill:#43a548;}.cls-4{fill:#fe770d;}.cls-5{fill:url(#linear-gradient-2);}.cls-6{fill:url(#linear-gradient-3);}.cls-7{fill:#fc590c;}.cls-8{fill:#3a9d47;}</style><linearGradient id="linear-gradient" x1="20.9" y1="24.3" x2="20.9" y2="42.12" gradientUnits="userSpaceOnUse"><stop offset="0" stop-color="#ff9b0e"/><stop offset="1" stop-color="#fd740d"/></linearGradient><linearGradient id="linear-gradient-2" x1="26.23" y1="24.58" x2="26.23" y2="42.23" gradientUnits="userSpaceOnUse"><stop offset="0" stop-color="#fe8b0d"/><stop offset="1" stop-color="#fd6a0d"/></linearGradient><linearGradient id="linear-gradient-3" x1="12.96" y1="25.26" x2="13.36" y2="41.6" xlink:href="#linear-gradient-2"/></defs><title>Asset 3</title><g id="Layer_2" data-name="Layer 2"><g id="Layer_1-2" data-name="Layer 1"><rect class="cls-1" width="42.08" height="42.08" rx="9.21" ry="9.21"/><polygon class="cls-1" points="55.58 15 52.44 15 52.21 15 49.44 15 49.44 27.21 52.44 27.21 52.44 18.06 55.58 18.06 55.58 15"/><path class="cls-1" d="M140,15a6.1,6.1,0,1,0,6.1,6.1A6.1,6.1,0,0,0,140,15Zm0,9.15a3,3,0,1,1,3-3A3,3,0,0,1,140,24.15Z"/><path class="cls-1" d="M154.34,15a6.1,6.1,0,1,0,6.1,6.1A6.1,6.1,0,0,0,154.34,15Zm0,9.15a3,3,0,1,1,3-3A3,3,0,0,1,154.34,24.15Z"/><path class="cls-1" d="M80.21,22.64a3,3,0,1,1,0-3.07h3.27a6.1,6.1,0,1,0,0,3.07Z"/><rect class="cls-1" x="85.63" y="15" width="3.03" height="12.21"/><path class="cls-1" d="M125.63,15a6.07,6.07,0,0,0-3.07.84v-3.9h-3V27.21h3v-.84A6.1,6.1,0,1,0,125.63,15Zm0,9.15a3,3,0,1,1,3-3A3,3,0,0,1,125.63,24.15Z"/><path class="cls-1" d="M103,21.1a6.1,6.1,0,0,0-9.18-5.27V15h-3V30.27h3v-3.9A6.1,6.1,0,0,0,103,21.1Zm-3.06,0a3,3,0,1,1-3-3A3,3,0,0,1,100,21.1Z"/><polygon class="cls-1" points="171.82 16.52 168.32 16.52 165.69 21.11 165.69 11.95 162.66 11.95 162.66 27.2 165.69 27.2 165.69 24.14 168 27.2 171.82 27.2 168.33 22.6 171.82 16.52"/><path class="cls-1" d="M111.27,15a6.1,6.1,0,1,0,5.53,8.68h-3.87a3.05,3.05,0,0,1-4.32-1h8.56a6.09,6.09,0,0,0-5.9-7.64Zm-2.66,4.57a3.07,3.07,0,0,1,5.31,0Z"/><path class="cls-1" d="M63.22,15a6.1,6.1,0,1,0,5.53,8.68H64.88a3.05,3.05,0,0,1-4.32-1h8.56A6.09,6.09,0,0,0,63.22,15Zm-2.66,4.57a3.07,3.07,0,0,1,5.31,0Z"/><path class="cls-2" d="M29.26,29.2a6.54,6.54,0,0,0-5.69-4.69c-.36-.05-.78-.14-1.2-.17-.19.84-.65,1.93-1.71,2.07l-.29,0c-1.18,0-1.8-1-2.17-1.91a6.54,6.54,0,0,0-5.65,4.68,16.4,16.4,0,0,0-.41,5.94,57.83,57.83,0,0,0,.92,6.94H28.75a57.83,57.83,0,0,0,.92-6.94A16.4,16.4,0,0,0,29.26,29.2Z"/><path class="cls-3" d="M16.84,10.48a.68.68,0,0,0-.35.68c.27,2.6.6,5.21,1,7.79a23.46,23.46,0,0,0,1,4.36c.35,1,.78,2.6,2.08,2.42,1.14-.15,1.26-2.4,1.26-2.4s0-4.73,2.13-7.66a15.21,15.21,0,0,1,5.37-4.3,1.81,1.81,0,0,0,.82-.77c.21-.39.26-.88-.47-1.14-1.37-.5-7.55,1-9.6,8.15l-.87-6.28c0-.2,0-.36-.22-.47A2.4,2.4,0,0,0,16.84,10.48Z"/><circle class="cls-4" cx="15.51" cy="28.68" r="1.15"/><circle class="cls-4" cx="17.71" cy="27.65" r="0.35"/><circle class="cls-4" cx="14.37" cy="31.04" r="0.24"/><circle class="cls-4" cx="15.72" cy="30.83" r="0.2"/><circle class="cls-4" cx="15.12" cy="32.29" r="0.1"/><path class="cls-5" d="M28.75,42.08H26.14s2.3-13.19-2.39-16a3.2,3.2,0,0,1-.8-.66c-.37-.44-.56-.95,1.08-.52C30,26.39,30.83,30.23,28.75,42.08Z"/><path class="cls-6" d="M13.07,42.08a39.7,39.7,0,0,1-.85-11.55l2.24,11.56Z"/><polygon class="cls-7" points="29.75 34.19 21.15 34.04 29.77 33.12 29.75 34.19"/><polygon class="cls-7" points="12.56 39.24 12.71 40.21 21.04 40.12 12.56 39.24"/><path class="cls-8" d="M20.22,19.33,18,11.66A.69.69,0,0,1,19.12,11h0a.75.75,0,0,1,.21.44Z"/></g></g></svg>